<svg xmlns="http://www.w3.org/2000/svg" xmlns:xlink="http://www.w3.org/1999/xlink" zoomAndPan="magnify" preserveAspectRatio="xMidYMid meet" version="1.0" viewBox="696.44 686.7 140.56 128.25"><defs><g/></defs><g fill="#ff5757" fill-opacity="1"><g transform="translate(696.599973, 813.74991)"><g><path d="M 133.046875 -124.34375 C 135.847656 -123.945312 137.773438 -123.097656 138.828125 -121.796875 C 139.878906 -120.492188 140.40625 -118.796875 140.40625 -116.703125 C 140.40625 -109.796875 136.703125 -106.59375 129.296875 -107.09375 L 124.046875 -107.546875 C 118.148438 -108.046875 112.273438 -108.445312 106.421875 -108.75 C 100.578125 -109.050781 94.453125 -109.203125 88.046875 -109.203125 L 81.296875 -109.203125 C 80.097656 -94.398438 78.847656 -80.898438 77.546875 -68.703125 L 103.34375 -69.15625 C 107.050781 -69.15625 109.53125 -68.503906 110.78125 -67.203125 C 112.03125 -65.898438 112.65625 -64.148438 112.65625 -61.953125 C 112.65625 -58.546875 111.65625 -55.867188 109.65625 -53.921875 C 107.65625 -51.972656 104.800781 -51 101.09375 -51 L 75.453125 -51 L 74.546875 -44.546875 C 72.453125 -28.046875 67.976562 -16.296875 61.125 -9.296875 C 54.269531 -2.296875 44.84375 1.203125 32.84375 1.203125 C 26.050781 1.203125 19.800781 -0.269531 14.09375 -3.21875 C 8.394531 -6.175781 4.195312 -9.753906 1.5 -13.953125 C 0.394531 -15.648438 -0.15625 -17.695312 -0.15625 -20.09375 C -0.15625 -22.5 0.414062 -24.597656 1.5625 -26.390625 C 2.71875 -28.191406 4.144531 -29.09375 5.84375 -29.09375 C 7.050781 -29.09375 8.226562 -28.691406 9.375 -27.890625 C 10.519531 -27.097656 11.992188 -25.550781 13.796875 -23.25 C 18.597656 -16.945312 24.550781 -13.796875 31.65625 -13.796875 C 37.351562 -13.796875 42.125 -16.117188 45.96875 -20.765625 C 49.820312 -25.421875 52.300781 -32.75 53.40625 -42.75 L 54.296875 -51 L 47.09375 -51 C 44.800781 -51 42.828125 -51.648438 41.171875 -52.953125 C 39.523438 -54.253906 38.703125 -56.101562 38.703125 -58.5 C 38.703125 -61.601562 39.5 -63.976562 41.09375 -65.625 C 42.695312 -67.269531 45.050781 -68.09375 48.15625 -68.09375 C 50.945312 -68.09375 53.695312 -68.144531 56.40625 -68.25 C 57.601562 -79.25 58.898438 -92.597656 60.296875 -108.296875 C 49.492188 -107.296875 41.894531 -105.546875 37.5 -103.046875 C 33.101562 -100.546875 30.90625 -96.847656 30.90625 -91.953125 C 30.90625 -88.546875 31.90625 -85.296875 33.90625 -82.203125 C 34.5 -81.296875 34.796875 -80.394531 34.796875 -79.5 C 34.796875 -77.695312 33.796875 -76.117188 31.796875 -74.765625 C 29.796875 -73.421875 27.546875 -72.75 25.046875 -72.75 C 22.347656 -72.75 20.050781 -73.550781 18.15625 -75.15625 C 16.945312 -76.15625 15.789062 -78.203125 14.6875 -81.296875 C 13.59375 -84.398438 13.046875 -87.851562 13.046875 -91.65625 C 13.046875 -104.050781 19.421875 -113.046875 32.171875 -118.640625 C 44.921875 -124.242188 63.546875 -127.046875 88.046875 -127.046875 C 105.046875 -127.046875 120.046875 -126.144531 133.046875 -124.34375 Z M 133.046875 -124.34375 "/></g></g></g></svg>
