<svg xmlns="http://www.w3.org/2000/svg" xmlns:xlink="http://www.w3.org/1999/xlink" width="2000" zoomAndPan="magnify" viewBox="0 0 1500 1499.999933" height="2000" preserveAspectRatio="xMidYMid meet" version="1.0"><defs><clipPath id="ab023d6603"><path d="M 405.898438 521 L 1094.398438 521 L 1094.398438 1095.773438 L 405.898438 1095.773438 Z M 405.898438 521 " clip-rule="nonzero"/></clipPath><clipPath id="59892b3fe0"><path d="M 843 404.273438 L 966 404.273438 L 966 757 L 843 757 Z M 843 404.273438 " clip-rule="nonzero"/></clipPath></defs><path stroke-linecap="butt" transform="matrix(0.75, 0, 0, 0.75, 509.999989, 748.499916)" fill="none" stroke-linejoin="miter" d="M 0.000014104 2.000113 L 640.000069 2.000113 " stroke="#ffffff" stroke-width="4" stroke-opacity="1" stroke-miterlimit="4"/><g clip-path="url(#ab023d6603)"><path fill="#ff5757" d="M 1094.027344 521.007812 L 1081.21875 753.722656 L 1045.082031 730.289062 C 1044.390625 729.84375 1043.664062 729.472656 1042.898438 729.175781 C 1042.132812 728.882812 1041.34375 728.671875 1040.53125 728.542969 C 1039.722656 728.410156 1038.90625 728.367188 1038.085938 728.410156 C 1037.265625 728.449219 1036.460938 728.574219 1035.667969 728.785156 C 1034.871094 728.996094 1034.109375 729.285156 1033.375 729.652344 C 1032.644531 730.023438 1031.957031 730.464844 1031.316406 730.976562 C 1030.675781 731.488281 1030.09375 732.0625 1029.574219 732.699219 C 1029.050781 733.332031 1028.601562 734.015625 1028.222656 734.742188 C 1019.738281 751.113281 1007.863281 770.300781 991.914062 793.386719 C 991.894531 793.425781 991.871094 793.464844 991.84375 793.5 C 965.605469 832.449219 945.328125 859.109375 928.023438 877.398438 L 927.6875 877.769531 C 898.738281 911.152344 871.054688 937.65625 843.058594 958.78125 L 788.796875 998.355469 C 762.324219 1015.011719 739.828125 1027.421875 720.011719 1036.28125 L 719.515625 1036.527344 C 702.082031 1045.328125 678.875 1054.285156 646.363281 1064.699219 C 613.332031 1074.613281 588.875 1080.613281 569.449219 1083.578125 C 569.222656 1083.613281 568.992188 1083.652344 568.765625 1083.699219 C 550.761719 1087.539062 527.054688 1090.585938 494.167969 1093.300781 C 468.15625 1095.203125 439.214844 1095.664062 405.863281 1094.714844 C 423.140625 1091.230469 440.207031 1087.300781 457.070312 1082.929688 L 458.28125 1082.621094 C 509.082031 1069.488281 558.355469 1052.050781 606.105469 1030.300781 C 606.285156 1030.230469 606.457031 1030.152344 606.625 1030.0625 L 608.121094 1029.382812 L 608.707031 1029.089844 C 656.660156 1003.707031 698.277344 977.921875 734.691406 950.929688 L 735.0625 950.652344 L 735.1875 950.554688 C 735.238281 950.53125 735.28125 950.5 735.324219 950.460938 C 748.148438 940.949219 760.300781 931.292969 771.898438 921.433594 C 810.816406 889.273438 852.277344 844.585938 898.632812 784.820312 C 923.1875 753.175781 944.417969 721.316406 961.746094 690.113281 C 962.101562 689.476562 962.394531 688.816406 962.625 688.125 C 962.855469 687.4375 963.023438 686.730469 963.125 686.011719 C 963.226562 685.289062 963.261719 684.566406 963.226562 683.839844 C 963.195312 683.113281 963.09375 682.394531 962.929688 681.6875 C 962.761719 680.980469 962.53125 680.292969 962.238281 679.625 C 961.945312 678.960938 961.59375 678.328125 961.179688 677.726562 C 960.769531 677.128906 960.308594 676.570312 959.792969 676.054688 C 959.277344 675.542969 958.71875 675.078125 958.121094 674.667969 L 920.015625 648.480469 C 920.601562 647.976562 921.21875 647.527344 921.878906 647.125 L 922.488281 646.699219 L 983.933594 601.679688 Z M 1094.027344 521.007812 " fill-opacity="1" fill-rule="nonzero"/></g><path fill="#ff5757" d="M 589.832031 706.066406 L 589.832031 1011.847656 C 549.863281 1029.664062 508.785156 1044.390625 466.597656 1056.023438 L 466.597656 704.652344 C 466.597656 696.289062 472.285156 689.484375 479.210938 689.484375 L 575.933594 689.484375 C 576.785156 689.480469 577.625 689.578125 578.453125 689.777344 L 578.542969 689.777344 C 585.054688 691.289062 589.832031 698.125 589.832031 706.066406 Z M 589.832031 706.066406 " fill-opacity="1" fill-rule="nonzero"/><path fill="#ff5757" d="M 716.148438 605.078125 L 716.148438 935.367188 C 685.824219 957.488281 651.785156 978.84375 613.324219 999.894531 L 613.324219 706.066406 C 613.324219 690.804688 605.136719 677.066406 592.90625 670.34375 L 592.90625 603.695312 C 592.90625 595.039062 598.675781 587.992188 605.773438 587.992188 L 702 587.992188 C 703.359375 588.007812 704.679688 588.242188 705.960938 588.695312 C 707.242188 589.148438 708.417969 589.792969 709.484375 590.632812 C 713.65625 593.789062 716.148438 599.207031 716.148438 605.078125 Z M 716.148438 605.078125 " fill-opacity="1" fill-rule="nonzero"/><path fill="#ff5757" d="M 867.339844 504.210938 L 867.339844 786.542969 C 827.171875 836.902344 790.878906 875.21875 756.855469 903.375 L 756.71875 903.480469 C 751.191406 908.195312 745.5 912.867188 739.648438 917.5 L 739.648438 605.078125 C 739.660156 602.527344 739.445312 599.996094 739 597.484375 C 738.558594 594.972656 737.890625 592.519531 737.007812 590.125 C 736.121094 587.734375 735.027344 585.441406 733.730469 583.246094 C 732.429688 581.050781 730.945312 578.988281 729.277344 577.058594 L 729.277344 502.804688 C 729.285156 501.800781 729.390625 500.808594 729.589844 499.828125 C 729.792969 498.847656 730.089844 497.898438 730.480469 496.972656 C 730.871094 496.050781 731.34375 495.175781 731.90625 494.347656 C 732.46875 493.519531 733.105469 492.753906 733.820312 492.046875 C 734.53125 491.34375 735.304688 490.71875 736.140625 490.167969 C 736.976562 489.613281 737.859375 489.148438 738.789062 488.773438 C 739.714844 488.394531 740.671875 488.109375 741.652344 487.921875 C 742.636719 487.730469 743.628906 487.640625 744.628906 487.644531 L 850.5625 487.644531 C 851.109375 487.640625 851.652344 487.664062 852.195312 487.714844 C 852.738281 487.765625 853.28125 487.84375 853.816406 487.945312 C 854.351562 488.050781 854.882812 488.179688 855.40625 488.335938 C 855.929688 488.492188 856.441406 488.671875 856.949219 488.878906 C 857.453125 489.082031 857.949219 489.3125 858.429688 489.566406 C 858.914062 489.820312 859.382812 490.097656 859.839844 490.398438 C 860.292969 490.699219 860.734375 491.023438 861.15625 491.367188 C 861.582031 491.710938 861.988281 492.074219 862.375 492.457031 C 862.765625 492.839844 863.132812 493.242188 863.484375 493.660156 C 863.832031 494.082031 864.160156 494.515625 864.464844 494.96875 C 864.773438 495.421875 865.054688 495.886719 865.316406 496.367188 C 865.578125 496.847656 865.8125 497.335938 866.023438 497.839844 C 866.238281 498.34375 866.425781 498.855469 866.585938 499.375 C 866.75 499.898438 866.886719 500.425781 866.996094 500.960938 C 867.105469 501.496094 867.1875 502.035156 867.246094 502.574219 C 867.304688 503.117188 867.335938 503.664062 867.339844 504.210938 Z M 867.339844 504.210938 " fill-opacity="1" fill-rule="nonzero"/><g clip-path="url(#59892b3fe0)"><path fill="#ff5757" d="M 896.128906 656.964844 C 896.472656 658.378906 897.054688 659.679688 897.878906 660.875 C 898.703125 662.074219 899.710938 663.082031 900.90625 663.90625 L 935.90625 687.984375 C 922.191406 711.554688 907.179688 734.269531 890.867188 756.128906 L 890.867188 504.210938 C 890.863281 502.894531 890.796875 501.578125 890.660156 500.269531 C 890.527344 498.960938 890.332031 497.660156 890.070312 496.371094 C 889.808594 495.082031 889.484375 493.804688 889.097656 492.546875 C 888.710938 491.289062 888.265625 490.050781 887.757812 488.839844 C 887.25 487.625 886.683594 486.4375 886.0625 485.277344 C 885.4375 484.117188 884.757812 482.992188 884.023438 481.898438 C 883.289062 480.808594 882.503906 479.753906 881.664062 478.738281 C 880.828125 477.722656 879.941406 476.75 879.007812 475.824219 C 878.074219 474.894531 877.097656 474.011719 876.078125 473.179688 C 875.058594 472.347656 874.003906 471.566406 872.90625 470.839844 C 871.808594 470.109375 870.679688 469.4375 869.519531 468.816406 C 868.355469 468.199219 867.167969 467.640625 865.949219 467.140625 C 864.730469 466.636719 863.492188 466.195312 862.234375 465.816406 C 860.972656 465.4375 859.695312 465.121094 858.40625 464.867188 C 857.113281 464.609375 855.8125 464.421875 854.503906 464.292969 C 853.191406 464.167969 851.878906 464.105469 850.5625 464.105469 L 843.425781 464.105469 L 843.425781 419.46875 C 843.425781 411.121094 849.117188 404.316406 856.050781 404.316406 L 951.226562 404.316406 C 958.898438 404.316406 965.125 411.753906 965.125 420.890625 L 965.125 586.277344 L 908.855469 627.511719 C 897.972656 634.628906 893.339844 645.34375 896.128906 656.964844 Z M 896.128906 656.964844 " fill-opacity="1" fill-rule="nonzero"/></g></svg>