<svg xmlns="http://www.w3.org/2000/svg" xmlns:xlink="http://www.w3.org/1999/xlink" zoomAndPan="magnify" preserveAspectRatio="xMidYMid meet" version="1.0" viewBox="437.54 672.75 641.11 209.25"><defs><g/></defs><g fill="#ff5757" fill-opacity="1"><g transform="translate(437.699972, 813.74991)"><g><path d="M 133.046875 -124.34375 C 135.847656 -123.945312 137.773438 -123.097656 138.828125 -121.796875 C 139.878906 -120.492188 140.40625 -118.796875 140.40625 -116.703125 C 140.40625 -109.796875 136.703125 -106.59375 129.296875 -107.09375 L 124.046875 -107.546875 C 118.148438 -108.046875 112.273438 -108.445312 106.421875 -108.75 C 100.578125 -109.050781 94.453125 -109.203125 88.046875 -109.203125 L 81.296875 -109.203125 C 80.097656 -94.398438 78.847656 -80.898438 77.546875 -68.703125 L 103.34375 -69.15625 C 107.050781 -69.15625 109.53125 -68.503906 110.78125 -67.203125 C 112.03125 -65.898438 112.65625 -64.148438 112.65625 -61.953125 C 112.65625 -58.546875 111.65625 -55.867188 109.65625 -53.921875 C 107.65625 -51.972656 104.800781 -51 101.09375 -51 L 75.453125 -51 L 74.546875 -44.546875 C 72.453125 -28.046875 67.976562 -16.296875 61.125 -9.296875 C 54.269531 -2.296875 44.84375 1.203125 32.84375 1.203125 C 26.050781 1.203125 19.800781 -0.269531 14.09375 -3.21875 C 8.394531 -6.175781 4.195312 -9.753906 1.5 -13.953125 C 0.394531 -15.648438 -0.15625 -17.695312 -0.15625 -20.09375 C -0.15625 -22.5 0.414062 -24.597656 1.5625 -26.390625 C 2.71875 -28.191406 4.144531 -29.09375 5.84375 -29.09375 C 7.050781 -29.09375 8.226562 -28.691406 9.375 -27.890625 C 10.519531 -27.097656 11.992188 -25.550781 13.796875 -23.25 C 18.597656 -16.945312 24.550781 -13.796875 31.65625 -13.796875 C 37.351562 -13.796875 42.125 -16.117188 45.96875 -20.765625 C 49.820312 -25.421875 52.300781 -32.75 53.40625 -42.75 L 54.296875 -51 L 47.09375 -51 C 44.800781 -51 42.828125 -51.648438 41.171875 -52.953125 C 39.523438 -54.253906 38.703125 -56.101562 38.703125 -58.5 C 38.703125 -61.601562 39.5 -63.976562 41.09375 -65.625 C 42.695312 -67.269531 45.050781 -68.09375 48.15625 -68.09375 C 50.945312 -68.09375 53.695312 -68.144531 56.40625 -68.25 C 57.601562 -79.25 58.898438 -92.597656 60.296875 -108.296875 C 49.492188 -107.296875 41.894531 -105.546875 37.5 -103.046875 C 33.101562 -100.546875 30.90625 -96.847656 30.90625 -91.953125 C 30.90625 -88.546875 31.90625 -85.296875 33.90625 -82.203125 C 34.5 -81.296875 34.796875 -80.394531 34.796875 -79.5 C 34.796875 -77.695312 33.796875 -76.117188 31.796875 -74.765625 C 29.796875 -73.421875 27.546875 -72.75 25.046875 -72.75 C 22.347656 -72.75 20.050781 -73.550781 18.15625 -75.15625 C 16.945312 -76.15625 15.789062 -78.203125 14.6875 -81.296875 C 13.59375 -84.398438 13.046875 -87.851562 13.046875 -91.65625 C 13.046875 -104.050781 19.421875 -113.046875 32.171875 -118.640625 C 44.921875 -124.242188 63.546875 -127.046875 88.046875 -127.046875 C 105.046875 -127.046875 120.046875 -126.144531 133.046875 -124.34375 Z M 133.046875 -124.34375 "/></g></g></g><g fill="#ff5757" fill-opacity="1"><g transform="translate(544.499992, 813.74991)"><g><path d="M 64.046875 -33.453125 C 65.347656 -33.453125 66.375 -32.847656 67.125 -31.640625 C 67.875 -30.441406 68.25 -28.796875 68.25 -26.703125 C 68.25 -22.703125 67.300781 -19.601562 65.40625 -17.40625 C 61.101562 -12.101562 56.425781 -7.75 51.375 -4.34375 C 46.320312 -0.945312 40.597656 0.75 34.203125 0.75 C 25.398438 0.75 18.875 -3.25 14.625 -11.25 C 10.375 -19.25 8.25 -29.597656 8.25 -42.296875 C 8.25 -54.492188 9.820312 -68.394531 12.96875 -84 C 16.125 -99.601562 20.773438 -113.003906 26.921875 -124.203125 C 33.078125 -135.398438 40.40625 -141 48.90625 -141 C 53.695312 -141 57.46875 -138.773438 60.21875 -134.328125 C 62.96875 -129.878906 64.34375 -123.503906 64.34375 -115.203125 C 64.34375 -103.296875 61.039062 -89.492188 54.4375 -73.796875 C 47.84375 -58.097656 38.894531 -42.550781 27.59375 -27.15625 C 28.300781 -23.050781 29.453125 -20.125 31.046875 -18.375 C 32.648438 -16.625 34.75 -15.75 37.34375 -15.75 C 41.445312 -15.75 45.046875 -16.921875 48.140625 -19.265625 C 51.242188 -21.617188 55.195312 -25.644531 60 -31.34375 C 61.195312 -32.75 62.546875 -33.453125 64.046875 -33.453125 Z M 45.59375 -126.15625 C 43.300781 -126.15625 40.703125 -122.003906 37.796875 -113.703125 C 34.898438 -105.398438 32.347656 -95.097656 30.140625 -82.796875 C 27.941406 -70.492188 26.742188 -58.695312 26.546875 -47.40625 C 33.648438 -59.101562 39.300781 -70.828125 43.5 -82.578125 C 47.695312 -94.328125 49.796875 -105.050781 49.796875 -114.75 C 49.796875 -122.351562 48.394531 -126.15625 45.59375 -126.15625 Z M 45.59375 -126.15625 "/></g></g></g><g fill="#ff5757" fill-opacity="1"><g transform="translate(593.399997, 813.74991)"><g><path d="M 83.703125 -46.046875 C 85.003906 -46.046875 86.003906 -45.394531 86.703125 -44.09375 C 87.398438 -42.800781 87.75 -41.15625 87.75 -39.15625 C 87.75 -34.351562 86.300781 -31.5 83.40625 -30.59375 C 77.40625 -28.5 70.800781 -27.300781 63.59375 -27 C 61.695312 -18.601562 57.945312 -11.878906 52.34375 -6.828125 C 46.75 -1.773438 40.398438 0.75 33.296875 0.75 C 27.296875 0.75 22.171875 -0.695312 17.921875 -3.59375 C 13.671875 -6.5 10.445312 -10.347656 8.25 -15.140625 C 6.050781 -19.941406 4.953125 -25.144531 4.953125 -30.75 C 4.953125 -38.351562 6.398438 -45.128906 9.296875 -51.078125 C 12.203125 -57.023438 16.203125 -61.671875 21.296875 -65.015625 C 26.398438 -68.367188 32.050781 -70.046875 38.25 -70.046875 C 45.851562 -70.046875 51.976562 -67.421875 56.625 -62.171875 C 61.269531 -56.921875 63.992188 -50.445312 64.796875 -42.75 C 69.492188 -43.050781 75.09375 -44.050781 81.59375 -45.75 C 82.394531 -45.945312 83.097656 -46.046875 83.703125 -46.046875 Z M 34.5 -15.15625 C 37.695312 -15.15625 40.46875 -16.453125 42.8125 -19.046875 C 45.164062 -21.648438 46.742188 -25.398438 47.546875 -30.296875 C 44.453125 -32.398438 42.078125 -35.148438 40.421875 -38.546875 C 38.773438 -41.953125 37.953125 -45.550781 37.953125 -49.34375 C 37.953125 -50.945312 38.101562 -52.550781 38.40625 -54.15625 L 37.65625 -54.15625 C 33.65625 -54.15625 30.328125 -52.226562 27.671875 -48.375 C 25.023438 -44.519531 23.703125 -39.09375 23.703125 -32.09375 C 23.703125 -26.59375 24.773438 -22.394531 26.921875 -19.5 C 29.078125 -16.601562 31.601562 -15.15625 34.5 -15.15625 Z M 34.5 -15.15625 "/></g></g></g><g fill="#ff5757" fill-opacity="1"><g transform="translate(662.550012, 813.74991)"><g><path d="M 81.453125 -45.59375 C 81.753906 -45.695312 82.253906 -45.75 82.953125 -45.75 C 84.453125 -45.75 85.597656 -45.25 86.390625 -44.25 C 87.191406 -43.25 87.59375 -41.898438 87.59375 -40.203125 C 87.59375 -37.097656 86.992188 -34.671875 85.796875 -32.921875 C 84.597656 -31.171875 82.800781 -29.894531 80.40625 -29.09375 C 75.800781 -27.59375 70.898438 -26.84375 65.703125 -26.84375 C 61.296875 -26.84375 57.144531 -27.445312 53.25 -28.65625 C 50.351562 -23.945312 47.15625 -19.09375 43.65625 -14.09375 C 39.65625 -8.394531 36.203125 -4.492188 33.296875 -2.390625 C 30.398438 -0.296875 27.101562 0.75 23.40625 0.75 C 19.300781 0.75 16.070312 -0.847656 13.71875 -4.046875 C 11.375 -7.242188 9.898438 -12.296875 9.296875 -19.203125 C 8.097656 -33.203125 7.5 -45.453125 7.5 -55.953125 L 7.5 -61.203125 C 7.601562 -64.503906 8.503906 -66.800781 10.203125 -68.09375 C 11.898438 -69.394531 14.445312 -70.046875 17.84375 -70.046875 C 20.445312 -70.046875 22.375 -69.46875 23.625 -68.3125 C 24.875 -67.164062 25.5 -65.242188 25.5 -62.546875 C 25.5 -51.046875 26.195312 -36.097656 27.59375 -17.703125 C 33.59375 -26.597656 38.09375 -33.695312 41.09375 -39 C 39.59375 -41.894531 38.84375 -45.34375 38.84375 -49.34375 C 38.84375 -52.75 39.59375 -56.050781 41.09375 -59.25 C 42.59375 -62.445312 44.644531 -65.046875 47.25 -67.046875 C 49.851562 -69.046875 52.800781 -70.046875 56.09375 -70.046875 C 59 -70.046875 61.347656 -69.019531 63.140625 -66.96875 C 64.941406 -64.925781 65.84375 -61.953125 65.84375 -58.046875 C 65.84375 -53.546875 64.644531 -48.394531 62.25 -42.59375 C 66.050781 -42.800781 71.101562 -43.550781 77.40625 -44.84375 Z M 81.453125 -45.59375 "/></g></g></g><g fill="#ff5757" fill-opacity="1"><g transform="translate(729.900019, 813.74991)"><g><path d="M 74.09375 -33.453125 C 75.394531 -33.453125 76.421875 -32.847656 77.171875 -31.640625 C 77.921875 -30.441406 78.296875 -28.796875 78.296875 -26.703125 C 78.296875 -22.703125 77.347656 -19.601562 75.453125 -17.40625 C 71.753906 -12.90625 66.53125 -8.753906 59.78125 -4.953125 C 53.03125 -1.148438 45.800781 0.75 38.09375 0.75 C 27.59375 0.75 19.441406 -2.097656 13.640625 -7.796875 C 7.847656 -13.492188 4.953125 -21.296875 4.953125 -31.203125 C 4.953125 -38.097656 6.398438 -44.519531 9.296875 -50.46875 C 12.203125 -56.425781 16.226562 -61.15625 21.375 -64.65625 C 26.519531 -68.15625 32.34375 -69.90625 38.84375 -69.90625 C 44.644531 -69.90625 49.296875 -68.175781 52.796875 -64.71875 C 56.296875 -61.269531 58.046875 -56.597656 58.046875 -50.703125 C 58.046875 -43.796875 55.570312 -37.867188 50.625 -32.921875 C 45.675781 -27.972656 37.300781 -24.050781 25.5 -21.15625 C 28 -16.550781 32.75 -14.25 39.75 -14.25 C 44.25 -14.25 49.375 -15.820312 55.125 -18.96875 C 60.875 -22.125 65.847656 -26.25 70.046875 -31.34375 C 71.242188 -32.75 72.59375 -33.453125 74.09375 -33.453125 Z M 36.296875 -55.203125 C 32.597656 -55.203125 29.472656 -53.050781 26.921875 -48.75 C 24.367188 -44.445312 23.09375 -39.25 23.09375 -33.15625 L 23.09375 -32.84375 C 29 -34.25 33.648438 -36.347656 37.046875 -39.140625 C 40.453125 -41.941406 42.15625 -45.195312 42.15625 -48.90625 C 42.15625 -50.800781 41.628906 -52.320312 40.578125 -53.46875 C 39.523438 -54.625 38.097656 -55.203125 36.296875 -55.203125 Z M 36.296875 -55.203125 "/></g></g></g><g fill="#ff5757" fill-opacity="1"><g transform="translate(788.850042, 813.74991)"><g><path d="M 17.84375 0.75 C 14.050781 0.75 11.378906 -1.25 9.828125 -5.25 C 8.273438 -9.25 7.5 -15.648438 7.5 -24.453125 C 7.5 -37.453125 9.347656 -49.800781 13.046875 -61.5 C 13.953125 -64.394531 15.425781 -66.519531 17.46875 -67.875 C 19.519531 -69.226562 22.394531 -69.90625 26.09375 -69.90625 C 28.09375 -69.90625 29.492188 -69.65625 30.296875 -69.15625 C 31.097656 -68.65625 31.5 -67.703125 31.5 -66.296875 C 31.5 -64.703125 30.75 -61.101562 29.25 -55.5 C 28.25 -51.5 27.445312 -48 26.84375 -45 C 26.25 -42 25.75 -38.300781 25.34375 -33.90625 C 28.644531 -42.5 32.34375 -49.492188 36.4375 -54.890625 C 40.539062 -60.296875 44.566406 -64.148438 48.515625 -66.453125 C 52.472656 -68.753906 56.101562 -69.90625 59.40625 -69.90625 C 65.90625 -69.90625 69.15625 -66.65625 69.15625 -60.15625 C 69.15625 -56.25 68.050781 -49.195312 65.84375 -39 C 63.945312 -30.300781 63 -24.550781 63 -21.75 C 63 -17.75 64.445312 -15.75 67.34375 -15.75 C 69.34375 -15.75 71.71875 -16.972656 74.46875 -19.421875 C 77.21875 -21.867188 80.894531 -25.84375 85.5 -31.34375 C 86.695312 -32.75 88.046875 -33.453125 89.546875 -33.453125 C 90.847656 -33.453125 91.875 -32.847656 92.625 -31.640625 C 93.375 -30.441406 93.75 -28.796875 93.75 -26.703125 C 93.75 -22.703125 92.800781 -19.601562 90.90625 -17.40625 C 86.601562 -12.101562 81.972656 -7.75 77.015625 -4.34375 C 72.066406 -0.945312 66.445312 0.75 60.15625 0.75 C 55.050781 0.75 51.195312 -0.722656 48.59375 -3.671875 C 46 -6.617188 44.703125 -10.894531 44.703125 -16.5 C 44.703125 -19.300781 45.398438 -24.300781 46.796875 -31.5 C 48.097656 -37.800781 48.75 -42.148438 48.75 -44.546875 C 48.75 -46.148438 48.195312 -46.953125 47.09375 -46.953125 C 45.800781 -46.953125 43.976562 -45.273438 41.625 -41.921875 C 39.269531 -38.578125 36.867188 -34.15625 34.421875 -28.65625 C 31.972656 -23.15625 30 -17.351562 28.5 -11.25 C 27.394531 -6.550781 26.117188 -3.375 24.671875 -1.71875 C 23.222656 -0.0703125 20.945312 0.75 17.84375 0.75 Z M 17.84375 0.75 "/></g></g></g><g fill="#ff5757" fill-opacity="1"><g transform="translate(863.250044, 813.74991)"><g><path d="M 74.09375 -33.453125 C 75.394531 -33.453125 76.421875 -32.847656 77.171875 -31.640625 C 77.921875 -30.441406 78.296875 -28.796875 78.296875 -26.703125 C 78.296875 -22.703125 77.347656 -19.601562 75.453125 -17.40625 C 71.148438 -12.101562 66.445312 -7.75 61.34375 -4.34375 C 56.25 -0.945312 50.398438 0.75 43.796875 0.75 C 23.398438 0.75 13.203125 -13.597656 13.203125 -42.296875 C 13.203125 -46.703125 13.351562 -51.15625 13.65625 -55.65625 L 7.796875 -55.65625 C 4.796875 -55.65625 2.769531 -56.203125 1.71875 -57.296875 C 0.675781 -58.398438 0.15625 -60.148438 0.15625 -62.546875 C 0.15625 -68.148438 2.40625 -70.953125 6.90625 -70.953125 L 15.453125 -70.953125 C 17.148438 -81.953125 19.75 -92 23.25 -101.09375 C 26.75 -110.195312 30.972656 -117.445312 35.921875 -122.84375 C 40.867188 -128.25 46.195312 -130.953125 51.90625 -130.953125 C 56.101562 -130.953125 59.398438 -129.097656 61.796875 -125.390625 C 64.203125 -121.691406 65.40625 -117.046875 65.40625 -111.453125 C 65.40625 -95.953125 58.90625 -82.453125 45.90625 -70.953125 L 62.703125 -70.953125 C 64.296875 -70.953125 65.441406 -70.597656 66.140625 -69.890625 C 66.847656 -69.191406 67.203125 -67.894531 67.203125 -66 C 67.203125 -59.101562 61.550781 -55.65625 50.25 -55.65625 L 31.953125 -55.65625 C 31.753906 -50.65625 31.65625 -46.753906 31.65625 -43.953125 C 31.65625 -33.546875 32.878906 -26.242188 35.328125 -22.046875 C 37.773438 -17.847656 41.648438 -15.75 46.953125 -15.75 C 51.253906 -15.75 55.050781 -17.046875 58.34375 -19.640625 C 61.644531 -22.242188 65.546875 -26.144531 70.046875 -31.34375 C 71.242188 -32.75 72.59375 -33.453125 74.09375 -33.453125 Z M 47.84375 -116.546875 C 46.34375 -116.546875 44.664062 -114.671875 42.8125 -110.921875 C 40.96875 -107.171875 39.21875 -101.96875 37.5625 -95.3125 C 35.914062 -88.664062 34.546875 -81.296875 33.453125 -73.203125 C 39.347656 -78.296875 43.769531 -84.019531 46.71875 -90.375 C 49.675781 -96.726562 51.15625 -102.503906 51.15625 -107.703125 C 51.15625 -113.597656 50.050781 -116.546875 47.84375 -116.546875 Z M 47.84375 -116.546875 "/></g></g></g><g fill="#ff5757" fill-opacity="1"><g transform="translate(922.200067, 813.74991)"><g><path d="M 17.84375 0.75 C 14.050781 0.75 11.378906 -1.25 9.828125 -5.25 C 8.273438 -9.25 7.5 -15.648438 7.5 -24.453125 C 7.5 -37.453125 9.347656 -49.800781 13.046875 -61.5 C 13.953125 -64.394531 15.425781 -66.519531 17.46875 -67.875 C 19.519531 -69.226562 22.394531 -69.90625 26.09375 -69.90625 C 28.09375 -69.90625 29.492188 -69.65625 30.296875 -69.15625 C 31.097656 -68.65625 31.5 -67.703125 31.5 -66.296875 C 31.5 -64.703125 30.75 -61.101562 29.25 -55.5 C 28.25 -51.5 27.445312 -48 26.84375 -45 C 26.25 -42 25.75 -38.300781 25.34375 -33.90625 C 28.644531 -42.5 32.34375 -49.492188 36.4375 -54.890625 C 40.539062 -60.296875 44.566406 -64.148438 48.515625 -66.453125 C 52.472656 -68.753906 56.101562 -69.90625 59.40625 -69.90625 C 65.90625 -69.90625 69.15625 -66.65625 69.15625 -60.15625 C 69.15625 -58.851562 68.703125 -55.703125 67.796875 -50.703125 C 66.992188 -46.703125 66.59375 -44.203125 66.59375 -43.203125 C 66.59375 -39.703125 67.84375 -37.953125 70.34375 -37.953125 C 73.144531 -37.953125 76.75 -40.148438 81.15625 -44.546875 C 82.445312 -45.847656 83.796875 -46.5 85.203125 -46.5 C 86.503906 -46.5 87.53125 -45.921875 88.28125 -44.765625 C 89.03125 -43.617188 89.40625 -42.097656 89.40625 -40.203125 C 89.40625 -36.503906 88.40625 -33.601562 86.40625 -31.5 C 83.601562 -28.601562 80.328125 -26.128906 76.578125 -24.078125 C 72.828125 -22.023438 68.851562 -21 64.65625 -21 C 59.351562 -21 55.328125 -22.347656 52.578125 -25.046875 C 49.828125 -27.742188 48.453125 -31.394531 48.453125 -36 C 48.453125 -37.5 48.601562 -39 48.90625 -40.5 C 49.101562 -42.5 49.203125 -43.847656 49.203125 -44.546875 C 49.203125 -46.148438 48.648438 -46.953125 47.546875 -46.953125 C 46.046875 -46.953125 44.070312 -45.273438 41.625 -41.921875 C 39.175781 -38.578125 36.75 -34.15625 34.34375 -28.65625 C 31.945312 -23.15625 30 -17.351562 28.5 -11.25 C 27.394531 -6.550781 26.117188 -3.375 24.671875 -1.71875 C 23.222656 -0.0703125 20.945312 0.75 17.84375 0.75 Z M 17.84375 0.75 "/></g></g><g transform="translate(990.450061, 813.74991)"><g><path d="M 84 -33.15625 C 85.300781 -33.15625 86.328125 -32.53125 87.078125 -31.28125 C 87.828125 -30.03125 88.203125 -28.453125 88.203125 -26.546875 C 88.203125 -24.242188 87.847656 -22.441406 87.140625 -21.140625 C 86.441406 -19.847656 85.34375 -18.703125 83.84375 -17.703125 L 55.046875 1.65625 C 51.242188 22.351562 46.269531 38.625 40.125 50.46875 C 33.976562 62.320312 26.15625 68.25 16.65625 68.25 C 11.550781 68.25 7.398438 66.671875 4.203125 63.515625 C 1.003906 60.367188 -0.59375 56.25 -0.59375 51.15625 C -0.59375 46.445312 0.476562 41.644531 2.625 36.75 C 4.769531 31.851562 8.769531 26.226562 14.625 19.875 C 20.476562 13.519531 28.753906 6.242188 39.453125 -1.953125 L 39.90625 -5.40625 C 40.601562 -9.101562 41.398438 -14.398438 42.296875 -21.296875 C 40.296875 -14.097656 37.492188 -8.625 33.890625 -4.875 C 30.296875 -1.125 26.5 0.75 22.5 0.75 C 18 0.75 14.320312 -1.320312 11.46875 -5.46875 C 8.625 -9.625 7.203125 -14.800781 7.203125 -21 C 7.203125 -28.5 7.703125 -35.375 8.703125 -41.625 C 9.703125 -47.875 11.351562 -54.5 13.65625 -61.5 C 14.65625 -64.5 16.050781 -66.648438 17.84375 -67.953125 C 19.644531 -69.253906 22.5 -69.90625 26.40625 -69.90625 C 28.601562 -69.90625 30.125 -69.550781 30.96875 -68.84375 C 31.820312 -68.144531 32.25 -67.097656 32.25 -65.703125 C 32.25 -64.898438 31.695312 -62.195312 30.59375 -57.59375 C 29.59375 -53.894531 28.796875 -50.546875 28.203125 -47.546875 C 27.398438 -43.453125 26.695312 -39.53125 26.09375 -35.78125 C 25.5 -32.03125 25.203125 -28.953125 25.203125 -26.546875 C 25.203125 -22.742188 26.25 -20.84375 28.34375 -20.84375 C 29.84375 -20.84375 31.71875 -22.34375 33.96875 -25.34375 C 36.21875 -28.34375 38.617188 -32.894531 41.171875 -39 C 43.722656 -45.101562 46.195312 -52.601562 48.59375 -61.5 C 49.394531 -64.5 50.617188 -66.648438 52.265625 -67.953125 C 53.921875 -69.253906 56.398438 -69.90625 59.703125 -69.90625 C 62.003906 -69.90625 63.601562 -69.601562 64.5 -69 C 65.394531 -68.394531 65.84375 -67.394531 65.84375 -66 C 65.84375 -63.5 64.546875 -54.898438 61.953125 -40.203125 L 58.046875 -16.046875 C 65.742188 -21.847656 73.242188 -27.148438 80.546875 -31.953125 C 81.847656 -32.753906 83 -33.15625 84 -33.15625 Z M 18.296875 53.703125 C 20.796875 53.703125 23.59375 50.800781 26.6875 45 C 29.789062 39.195312 32.894531 29.546875 36 16.046875 C 28.300781 22.546875 22.722656 28.46875 19.265625 33.8125 C 15.816406 39.164062 14.09375 43.84375 14.09375 47.84375 C 14.09375 49.550781 14.414062 50.953125 15.0625 52.046875 C 15.71875 53.148438 16.796875 53.703125 18.296875 53.703125 Z M 18.296875 53.703125 "/></g></g></g></svg>